<svg xmlns="http://www.w3.org/2000/svg" viewBox="0 0 512 512">
<!--!Font Awesome Free 6.7.2 by @fontawesome - https://fontawesome.com License - https://fontawesome.com/license/free Copyright 2025 Fonticons, Inc.-->
<!-- <rect x="0" y="0" width="512" height="512" fill="#fff" stroke="#000" stroke-width="1"></rect> -->
<!-- <g transform="rotate(45, 256, 256)"> -->
<path d="M256 48a208 208 0 1 1 0 416 208 208 0 1 1 0-416zm0 464A256 256 0 1 0 256 0a256 256 0 1 0 0 512zM369 209c9.4-9.4 9.4-24.6 0-33.9s-24.6-9.4-33.9 0l-111 111-47-47c-9.4-9.4-24.6-9.4-33.9 0s-9.4 24.6 0 33.9l64 64c9.4 9.4 24.6 9.4 33.9 0L369 209z" fill="#074"/>
<!-- </g> -->
<!-- <line x1="0" y1="256" x2="512" y2="256" stroke="#9af" stroke-width="1"></line>
<line x1="256" y1="0" x2="256" y2="512" stroke="#9af" stroke-width="1"></line>
<line x1="0" y1="256" x2="512" y2="256" stroke="#9af" stroke-width="1"></line>
<line x1="0" y1="256" x2="512" y2="256" stroke="#9af" stroke-width="1"></line> -->
</svg>